<?xml version="1.0" encoding="utf-8"?>
<!-- Generator: Adobe Illustrator 22.0.0, SVG Export Plug-In . SVG Version: 6.00 Build 0)  -->
<svg version="1.1" id="Layer_1" xmlns="http://www.w3.org/2000/svg" xmlns:xlink="http://www.w3.org/1999/xlink" x="0px" y="0px"
	 viewBox="0 0 430 458" style="enable-background:new 0 0 430 458;" xml:space="preserve">
<style type="text/css">
	.st0{fill:#662D91;}
</style>
<circle cx="214" cy="102" r="65"/>
<circle cx="281" cy="358" r="40"/>
<circle cx="132" cy="358" r="40"/>
<circle class="st0" cx="214" cy="228" r="161"/>
<g>
	<path d="M211.5,228.5c-0.7-5.9-1.5-11.7-2.1-17.6c-0.6-5.9-1-11.7-1.4-17.6c-0.7-11.7-1.1-23.4-1.1-35.1c0-11.7,0.2-23.4,0.9-35.1
		c0.7-11.7,1.7-23.4,3.7-35.1c2.2,11.7,3.3,23.4,4.2,35.1c0.8,11.7,1.2,23.4,1.2,35.1c0,11.7-0.3,23.4-1,35.1
		c-0.4,5.9-0.9,11.7-1.5,17.6C213.6,216.8,212.9,222.7,211.5,228.5z"/>
</g>
<g>
	<path d="M211,228.3c8.1,3.4,15.7,7.3,23.2,11.5c7.4,4.2,14.7,8.8,21.7,13.6c7.1,4.8,13.9,9.9,20.6,15.3c6.6,5.4,13.1,11.1,19,17.6
		c-8.3-3.1-15.9-7-23.4-11.1c-7.5-4.2-14.7-8.7-21.8-13.5c-7.1-4.8-13.9-9.9-20.5-15.4c-3.3-2.7-6.6-5.6-9.7-8.5
		C216.9,234.8,213.8,231.8,211,228.3z"/>
</g>
</svg>
